# xmcd
#
# Track frame offsets:
# 150
# 13354
# 27337
# 39592
# 53611
# 66174
# 78053
# 87654
# 99345
# 110360
# 121101
# 132128
#
# Disc length: 1929 seconds
#
#
# Revision: 0
# Processed by: cddbd v1.5.2PL0 Copyright (c) Steve Scherf et al.
# Submitted via: FreeRIP 2.945 
#
DISCID=9207870c
DTITLE=Os Atuais - Embalo 72
DYEAR=1900
DGENRE=
TTITLE0=Volte meu Benzinho
TTITLE1=Mariza
TTITLE2=Quero ser teu Namorado
TTITLE3=Canção Pra Você
TTITLE4=A Distância
TTITLE5=Lembrando Você
TTITLE6=Azul e Vermelho
TTITLE7=El Condor Passa
TTITLE8=O Apartamento
TTITLE9=Por um Beijo de Amor
TTITLE10=Alegria na Cuca
TTITLE11=Recordando o Kerb
EXTD=
EXTT0=
EXTT1=
EXTT2=
EXTT3=
EXTT4=
EXTT5=
EXTT6=
EXTT7=
EXTT8=
EXTT9=
EXTT10=
EXTT11=
PLAYORDER=
